<?xml version="1.0" encoding="UTF-8"?>
<svg xmlns="http://www.w3.org/2000/svg" xmlns:xlink="http://www.w3.org/1999/xlink" width="33pt" height="32.999998pt" viewBox="0 0 33 32.999998" version="1.2">
<defs>
<clipPath id="clip1">
  <path d="M 3.300781 13 L 9 13 L 9 28 L 3.300781 28 Z M 3.300781 13 "/>
</clipPath>
<clipPath id="clip2">
  <path d="M 24 3.300781 L 29.550781 3.300781 L 29.550781 28 L 24 28 Z M 24 3.300781 "/>
</clipPath>
<clipPath id="clip3">
  <path d="M 3.300781 28 L 29.550781 28 L 29.550781 29.550781 L 3.300781 29.550781 Z M 3.300781 28 "/>
</clipPath>
</defs>
<g id="surface1">
<rect x="0" y="0" width="33" height="32.999998" style="fill:rgb(100%,100%,100%);fill-opacity:1;stroke:none;"/>
<rect x="0" y="0" width="33" height="32.999998" style="fill:rgb(100%,100%,100%);fill-opacity:1;stroke:none;"/>
<rect x="0" y="0" width="33" height="32.999998" style="fill:rgb(100%,100%,100%);fill-opacity:1;stroke:none;"/>
<path style=" stroke:none;fill-rule:nonzero;fill:rgb(99.21875%,27.839661%,39.99939%);fill-opacity:1;" d="M 11.175781 11.175781 L 14.675781 11.175781 L 14.675781 26.925781 L 11.175781 26.925781 Z M 15.113281 27.800781 C 15.351562 27.800781 15.550781 27.601562 15.550781 27.363281 L 15.550781 10.738281 C 15.550781 10.496094 15.351562 10.300781 15.113281 10.300781 L 10.738281 10.300781 C 10.496094 10.300781 10.300781 10.496094 10.300781 10.738281 L 10.300781 27.363281 C 10.300781 27.601562 10.496094 27.800781 10.738281 27.800781 L 15.113281 27.800781 "/>
<g clip-path="url(#clip1)" clip-rule="nonzero">
<path style=" stroke:none;fill-rule:nonzero;fill:rgb(99.21875%,27.839661%,39.99939%);fill-opacity:1;" d="M 4.175781 14.675781 L 7.675781 14.675781 L 7.675781 26.925781 L 4.175781 26.925781 Z M 3.738281 27.800781 L 8.113281 27.800781 C 8.351562 27.800781 8.550781 27.601562 8.550781 27.363281 L 8.550781 14.238281 C 8.550781 13.996094 8.351562 13.800781 8.113281 13.800781 L 3.738281 13.800781 C 3.496094 13.800781 3.300781 13.996094 3.300781 14.238281 L 3.300781 27.363281 C 3.300781 27.601562 3.496094 27.800781 3.738281 27.800781 "/>
</g>
<path style=" stroke:none;fill-rule:nonzero;fill:rgb(99.21875%,27.839661%,39.99939%);fill-opacity:1;" d="M 18.175781 7.675781 L 21.675781 7.675781 L 21.675781 26.925781 L 18.175781 26.925781 Z M 22.113281 27.800781 C 22.351562 27.800781 22.550781 27.601562 22.550781 27.363281 L 22.550781 7.238281 C 22.550781 6.996094 22.351562 6.800781 22.113281 6.800781 L 17.738281 6.800781 C 17.496094 6.800781 17.300781 6.996094 17.300781 7.238281 L 17.300781 27.363281 C 17.300781 27.601562 17.496094 27.800781 17.738281 27.800781 L 22.113281 27.800781 "/>
<g clip-path="url(#clip2)" clip-rule="nonzero">
<path style=" stroke:none;fill-rule:nonzero;fill:rgb(99.21875%,27.839661%,39.99939%);fill-opacity:1;" d="M 28.675781 26.925781 L 25.175781 26.925781 L 25.175781 4.175781 L 28.675781 4.175781 Z M 29.113281 3.300781 L 24.738281 3.300781 C 24.496094 3.300781 24.300781 3.496094 24.300781 3.738281 L 24.300781 27.363281 C 24.300781 27.601562 24.496094 27.800781 24.738281 27.800781 L 29.113281 27.800781 C 29.351562 27.800781 29.550781 27.601562 29.550781 27.363281 L 29.550781 3.738281 C 29.550781 3.496094 29.351562 3.300781 29.113281 3.300781 "/>
</g>
<g clip-path="url(#clip3)" clip-rule="nonzero">
<path style=" stroke:none;fill-rule:nonzero;fill:rgb(99.21875%,27.839661%,39.99939%);fill-opacity:1;" d="M 29.113281 28.675781 L 3.738281 28.675781 C 3.496094 28.675781 3.300781 28.871094 3.300781 29.113281 C 3.300781 29.351562 3.496094 29.550781 3.738281 29.550781 L 29.113281 29.550781 C 29.351562 29.550781 29.550781 29.351562 29.550781 29.113281 C 29.550781 28.871094 29.351562 28.675781 29.113281 28.675781 "/>
</g>
</g>
</svg>
