<?xml version="1.0" encoding="UTF-8"?>
<svg xmlns="http://www.w3.org/2000/svg" xmlns:xlink="http://www.w3.org/1999/xlink" width="33pt" height="32.999998pt" viewBox="0 0 33 32.999998" version="1.2">
<defs>
<clipPath id="clip1">
  <path d="M 3.300781 4.207031 L 29.550781 4.207031 L 29.550781 28.957031 L 3.300781 28.957031 Z M 3.300781 4.207031 "/>
</clipPath>
</defs>
<g id="surface1">
<rect x="0" y="0" width="33" height="32.999998" style="fill:rgb(100%,100%,100%);fill-opacity:1;stroke:none;"/>
<rect x="0" y="0" width="33" height="32.999998" style="fill:rgb(100%,100%,100%);fill-opacity:1;stroke:none;"/>
<g clip-path="url(#clip1)" clip-rule="nonzero">
<path style=" stroke:none;fill-rule:nonzero;fill:rgb(3.919983%,86.669922%,61.959839%);fill-opacity:1;" d="M 20.371094 17 L 27.632812 17 C 28.183594 17 28.636719 17.457031 28.636719 18.015625 L 28.636719 23.65625 C 28.636719 24.21875 28.183594 24.671875 27.632812 24.671875 L 20.371094 24.671875 C 19.820312 24.671875 19.371094 24.21875 19.371094 23.65625 L 19.371094 18.015625 C 19.371094 17.457031 19.820312 17 20.371094 17 Z M 4.214844 11.859375 C 4.253906 11.863281 4.289062 11.882812 4.328125 11.882812 L 13.363281 11.882812 C 13.402344 11.882812 13.4375 11.863281 13.476562 11.859375 L 13.476562 13.921875 C 13.476562 14.207031 13.246094 14.441406 12.964844 14.441406 L 4.726562 14.441406 C 4.445312 14.441406 4.214844 14.207031 4.214844 13.921875 Z M 4.328125 8.472656 L 13.363281 8.472656 C 13.425781 8.472656 13.476562 8.523438 13.476562 8.589844 L 13.476562 10.914062 C 13.476562 10.976562 13.425781 11.03125 13.363281 11.03125 L 4.328125 11.03125 C 4.265625 11.03125 4.214844 10.976562 4.214844 10.914062 L 4.214844 8.589844 C 4.214844 8.523438 4.265625 8.472656 4.328125 8.472656 Z M 16.425781 5.914062 L 16.425781 6.769531 L 22.578125 6.769531 C 23.132812 6.769531 23.582031 7.222656 23.582031 7.785156 L 23.582031 16.148438 L 20.375 16.148438 C 19.359375 16.148438 18.53125 16.984375 18.53125 18.015625 L 18.53125 23.660156 C 18.53125 24.691406 19.359375 25.527344 20.375 25.527344 L 23.582031 25.527344 L 23.582031 28.085938 L 21.476562 28.085938 L 21.476562 28.941406 L 26.53125 28.941406 L 26.53125 28.085938 L 24.425781 28.085938 L 24.425781 25.527344 L 27.632812 25.527344 C 28.648438 25.527344 29.476562 24.691406 29.476562 23.660156 L 29.476562 18.015625 C 29.476562 16.984375 28.648438 16.148438 27.632812 16.148438 L 24.425781 16.148438 L 24.425781 7.785156 C 24.425781 6.753906 23.597656 5.914062 22.578125 5.914062 Z M 4.726562 5.0625 L 12.964844 5.0625 C 13.246094 5.0625 13.476562 5.296875 13.476562 5.582031 L 13.476562 7.503906 C 13.476562 7.566406 13.425781 7.621094 13.363281 7.621094 L 4.328125 7.621094 C 4.265625 7.621094 4.214844 7.566406 4.214844 7.503906 L 4.214844 5.582031 C 4.214844 5.296875 4.445312 5.0625 4.726562 5.0625 Z M 4.328125 4.210938 C 3.804688 4.210938 3.371094 4.644531 3.371094 5.179688 L 3.371094 13.921875 C 3.371094 14.675781 3.980469 15.292969 4.726562 15.292969 L 12.964844 15.292969 C 13.710938 15.292969 14.320312 14.679688 14.320312 13.921875 L 14.320312 5.179688 C 14.320312 4.644531 13.890625 4.210938 13.363281 4.210938 L 4.328125 4.210938 "/>
</g>
</g>
</svg>
