<?xml version="1.0" encoding="UTF-8"?>
<svg xmlns="http://www.w3.org/2000/svg" xmlns:xlink="http://www.w3.org/1999/xlink" width="33pt" height="32.999998pt" viewBox="0 0 33 32.999998" version="1.2">
<defs>
<clipPath id="clip1">
  <path d="M 7.195312 3.300781 L 25.945312 3.300781 L 25.945312 29.550781 L 7.195312 29.550781 Z M 7.195312 3.300781 "/>
</clipPath>
</defs>
<g id="surface1">
<rect x="0" y="0" width="33" height="32.999998" style="fill:rgb(100%,100%,100%);fill-opacity:1;stroke:none;"/>
<rect x="0" y="0" width="33" height="32.999998" style="fill:rgb(100%,100%,100%);fill-opacity:1;stroke:none;"/>
<g clip-path="url(#clip1)" clip-rule="nonzero">
<path style=" stroke:none;fill-rule:nonzero;fill:rgb(100%,85.099792%,47.059631%);fill-opacity:1;" d="M 25.707031 14.636719 C 25.863281 13.960938 25.945312 13.265625 25.945312 12.5625 C 25.945312 12.097656 25.910156 11.636719 25.839844 11.191406 C 25.839844 11.183594 25.839844 11.179688 25.839844 11.175781 C 25.710938 10.339844 25.46875 9.542969 25.132812 8.796875 C 25.125 8.773438 25.117188 8.753906 25.105469 8.738281 C 24.113281 6.59375 22.316406 4.882812 20.101562 3.992188 C 20.085938 3.980469 20.066406 3.976562 20.050781 3.96875 C 18.972656 3.542969 17.796875 3.308594 16.570312 3.308594 C 14.324219 3.308594 12.257812 4.09375 10.640625 5.398438 C 10.621094 5.410156 10.601562 5.425781 10.585938 5.441406 C 8.515625 7.140625 7.195312 9.703125 7.195312 12.5625 C 7.195312 13.269531 7.273438 13.96875 7.433594 14.644531 C 7.6875 15.746094 8.148438 16.792969 8.796875 17.738281 C 8.800781 17.742188 8.800781 17.746094 8.804688 17.75 C 8.828125 17.78125 11.238281 20.871094 11.707031 23.761719 C 11.425781 23.957031 11.242188 24.28125 11.242188 24.644531 L 11.242188 24.734375 C 11.242188 25.101562 11.429688 25.425781 11.714844 25.621094 C 11.429688 25.816406 11.242188 26.140625 11.242188 26.507812 L 11.242188 26.597656 C 11.242188 27.191406 11.730469 27.675781 12.335938 27.675781 L 13.816406 27.675781 C 13.65625 27.867188 13.558594 28.109375 13.558594 28.375 L 13.558594 28.460938 C 13.558594 29.058594 14.046875 29.542969 14.652344 29.542969 L 18.488281 29.542969 C 19.089844 29.542969 19.582031 29.058594 19.582031 28.460938 L 19.582031 28.375 C 19.582031 28.109375 19.484375 27.867188 19.324219 27.675781 L 20.804688 27.675781 C 21.40625 27.675781 21.898438 27.191406 21.898438 26.597656 L 21.898438 26.507812 C 21.898438 26.140625 21.710938 25.816406 21.425781 25.621094 C 21.710938 25.425781 21.898438 25.101562 21.898438 24.734375 L 21.898438 24.644531 C 21.898438 24.28125 21.714844 23.957031 21.433594 23.761719 C 21.898438 20.871094 24.308594 17.78125 24.332031 17.75 C 24.335938 17.746094 24.339844 17.742188 24.339844 17.738281 C 24.992188 16.789062 25.449219 15.742188 25.707031 14.640625 C 25.707031 14.640625 25.707031 14.636719 25.707031 14.636719 Z M 25.417969 11.023438 L 24.546875 11.023438 C 23.992188 11.023438 23.542969 10.578125 23.542969 10.03125 C 23.542969 9.484375 23.992188 9.039062 24.546875 9.039062 L 24.8125 9.039062 C 25.089844 9.667969 25.296875 10.332031 25.417969 11.023438 Z M 24.632812 8.652344 L 24.546875 8.652344 C 23.777344 8.652344 23.152344 9.273438 23.152344 10.03125 C 23.152344 10.792969 23.777344 11.410156 24.546875 11.410156 L 25.480469 11.410156 C 25.527344 11.785156 25.554688 12.171875 25.554688 12.5625 C 25.554688 13.1875 25.488281 13.804688 25.359375 14.40625 L 22.597656 14.40625 L 22.597656 13.335938 C 22.597656 13.316406 22.597656 13.300781 22.59375 13.28125 C 22.59375 13.273438 22.59375 13.265625 22.59375 13.257812 L 22.59375 13.25 C 22.59375 13.242188 22.59375 13.230469 22.59375 13.21875 C 22.59375 13.21875 22.59375 13.214844 22.59375 13.214844 C 22.59375 13.214844 22.59375 13.214844 22.59375 13.210938 L 22.589844 13.203125 C 22.589844 13.195312 22.589844 13.183594 22.585938 13.175781 C 22.585938 13.160156 22.585938 13.148438 22.582031 13.132812 C 22.578125 13.109375 22.574219 13.089844 22.570312 13.070312 C 22.570312 13.054688 22.566406 13.042969 22.5625 13.03125 C 22.5625 13.027344 22.5625 13.027344 22.5625 13.027344 C 22.5625 13.023438 22.5625 13.023438 22.5625 13.019531 C 22.558594 13.015625 22.558594 13.015625 22.558594 13.011719 L 22.554688 13.003906 C 22.554688 13 22.554688 12.996094 22.554688 12.992188 C 22.554688 12.992188 22.550781 12.988281 22.550781 12.984375 C 22.550781 12.984375 22.550781 12.980469 22.550781 12.980469 C 22.550781 12.980469 22.550781 12.976562 22.550781 12.976562 C 22.542969 12.953125 22.539062 12.9375 22.535156 12.929688 C 22.527344 12.902344 22.519531 12.878906 22.511719 12.863281 C 22.5 12.828125 22.488281 12.800781 22.476562 12.773438 C 22.476562 12.769531 22.472656 12.765625 22.472656 12.765625 C 22.25 12.269531 21.75 11.953125 21.203125 11.953125 C 20.457031 11.953125 19.847656 12.523438 19.808594 13.25 C 19.808594 13.253906 19.808594 13.257812 19.808594 13.261719 C 19.808594 13.289062 19.804688 13.3125 19.804688 13.335938 L 19.804688 14.40625 L 16.765625 14.40625 L 16.765625 11.21875 C 16.765625 11.109375 16.675781 11.023438 16.570312 11.023438 L 15.28125 11.023438 C 14.726562 11.023438 14.277344 10.578125 14.277344 10.03125 C 14.277344 9.996094 14.277344 9.964844 14.28125 9.933594 C 14.28125 9.925781 14.28125 9.917969 14.28125 9.914062 L 14.285156 9.902344 C 14.285156 9.894531 14.285156 9.886719 14.289062 9.878906 C 14.289062 9.878906 14.289062 9.875 14.289062 9.875 C 14.289062 9.871094 14.289062 9.863281 14.292969 9.859375 C 14.292969 9.84375 14.296875 9.828125 14.300781 9.8125 C 14.320312 9.722656 14.355469 9.636719 14.398438 9.558594 C 14.402344 9.546875 14.410156 9.539062 14.414062 9.53125 L 14.414062 9.527344 L 14.417969 9.519531 C 14.421875 9.519531 14.421875 9.519531 14.421875 9.515625 C 14.425781 9.507812 14.433594 9.5 14.4375 9.492188 C 14.441406 9.488281 14.441406 9.484375 14.445312 9.480469 C 14.449219 9.476562 14.449219 9.472656 14.453125 9.46875 C 14.460938 9.460938 14.464844 9.453125 14.472656 9.445312 L 14.476562 9.4375 C 14.476562 9.4375 14.476562 9.4375 14.480469 9.433594 C 14.480469 9.433594 14.480469 9.429688 14.480469 9.429688 C 14.488281 9.421875 14.496094 9.410156 14.507812 9.398438 C 14.511719 9.390625 14.519531 9.386719 14.523438 9.378906 C 14.523438 9.378906 14.523438 9.378906 14.527344 9.378906 C 14.53125 9.371094 14.53125 9.367188 14.535156 9.363281 C 14.546875 9.351562 14.558594 9.339844 14.570312 9.328125 C 14.578125 9.320312 14.585938 9.3125 14.597656 9.300781 C 14.605469 9.296875 14.613281 9.289062 14.621094 9.285156 C 14.621094 9.28125 14.621094 9.28125 14.625 9.28125 C 14.632812 9.273438 14.640625 9.265625 14.648438 9.257812 C 14.667969 9.242188 14.6875 9.226562 14.714844 9.210938 C 14.722656 9.207031 14.734375 9.199219 14.742188 9.191406 C 14.746094 9.191406 14.746094 9.191406 14.75 9.1875 C 14.753906 9.183594 14.761719 9.183594 14.769531 9.175781 L 14.792969 9.164062 C 14.796875 9.160156 14.800781 9.160156 14.804688 9.15625 L 14.84375 9.136719 C 14.851562 9.132812 14.859375 9.128906 14.871094 9.125 C 14.871094 9.125 14.875 9.125 14.875 9.121094 C 14.875 9.121094 14.875 9.121094 14.878906 9.121094 C 14.882812 9.121094 14.886719 9.117188 14.890625 9.117188 C 14.902344 9.113281 14.910156 9.109375 14.917969 9.105469 C 14.921875 9.105469 14.925781 9.101562 14.929688 9.101562 C 14.929688 9.101562 14.933594 9.101562 14.9375 9.097656 C 14.941406 9.097656 14.949219 9.09375 14.957031 9.089844 C 14.972656 9.085938 14.984375 9.082031 15 9.078125 C 15.027344 9.070312 15.050781 9.0625 15.082031 9.058594 C 15.097656 9.054688 15.109375 9.050781 15.121094 9.050781 C 15.125 9.050781 15.125 9.050781 15.128906 9.050781 C 15.132812 9.050781 15.140625 9.046875 15.148438 9.046875 C 15.15625 9.046875 15.160156 9.046875 15.167969 9.046875 C 15.171875 9.042969 15.175781 9.042969 15.179688 9.042969 C 15.183594 9.042969 15.183594 9.042969 15.1875 9.042969 C 15.199219 9.042969 15.210938 9.039062 15.222656 9.039062 C 15.226562 9.039062 15.230469 9.039062 15.230469 9.039062 C 15.242188 9.039062 15.25 9.039062 15.261719 9.039062 C 15.269531 9.039062 15.273438 9.039062 15.28125 9.039062 L 16.570312 9.039062 C 16.675781 9.039062 16.765625 8.953125 16.765625 8.847656 L 16.765625 5.648438 L 20 5.648438 C 20.109375 5.648438 20.195312 5.5625 20.195312 5.457031 L 20.195312 4.449219 C 22.125 5.292969 23.703125 6.789062 24.632812 8.652344 Z M 10.929688 5.664062 C 12.472656 4.429688 14.433594 3.691406 16.570312 3.691406 C 17.710938 3.691406 18.800781 3.902344 19.804688 4.289062 L 19.804688 5.265625 L 13.136719 5.265625 C 13.03125 5.265625 12.941406 5.351562 12.941406 5.457031 L 12.941406 6.730469 C 12.941406 7.277344 12.492188 7.722656 11.9375 7.722656 C 11.382812 7.722656 10.929688 7.277344 10.929688 6.730469 Z M 10.542969 5.988281 L 10.542969 6.730469 C 10.542969 7.488281 11.167969 8.105469 11.9375 8.105469 C 12.707031 8.105469 13.332031 7.488281 13.332031 6.730469 L 13.332031 5.648438 L 16.375 5.648438 L 16.375 8.652344 L 15.28125 8.652344 C 15.265625 8.652344 15.25 8.652344 15.238281 8.65625 C 15.226562 8.65625 15.214844 8.65625 15.203125 8.65625 C 15.1875 8.65625 15.171875 8.660156 15.152344 8.660156 C 15.148438 8.660156 15.140625 8.660156 15.136719 8.660156 C 15.128906 8.664062 15.121094 8.664062 15.117188 8.664062 C 15.113281 8.664062 15.109375 8.664062 15.105469 8.664062 C 15.09375 8.667969 15.078125 8.667969 15.066406 8.671875 C 15.0625 8.671875 15.0625 8.671875 15.0625 8.671875 C 15.039062 8.675781 15.019531 8.679688 15 8.683594 C 14.964844 8.691406 14.925781 8.699219 14.890625 8.710938 C 14.871094 8.714844 14.851562 8.71875 14.839844 8.726562 C 14.820312 8.730469 14.804688 8.738281 14.789062 8.742188 C 14.789062 8.742188 14.785156 8.742188 14.785156 8.746094 C 14.78125 8.746094 14.78125 8.746094 14.777344 8.746094 C 14.769531 8.75 14.757812 8.753906 14.75 8.757812 C 14.746094 8.761719 14.742188 8.761719 14.738281 8.761719 C 14.726562 8.765625 14.71875 8.769531 14.710938 8.777344 C 14.710938 8.777344 14.710938 8.777344 14.707031 8.777344 C 14.695312 8.78125 14.679688 8.789062 14.667969 8.792969 L 14.625 8.816406 C 14.613281 8.820312 14.605469 8.828125 14.597656 8.832031 L 14.578125 8.84375 C 14.5625 8.851562 14.550781 8.859375 14.539062 8.867188 C 14.523438 8.875 14.507812 8.886719 14.492188 8.894531 C 14.460938 8.917969 14.429688 8.941406 14.40625 8.960938 C 14.394531 8.96875 14.378906 8.980469 14.367188 8.992188 C 14.355469 9 14.34375 9.011719 14.328125 9.027344 C 14.316406 9.035156 14.308594 9.046875 14.296875 9.058594 C 14.28125 9.074219 14.265625 9.089844 14.246094 9.109375 C 14.242188 9.113281 14.238281 9.117188 14.234375 9.125 C 14.230469 9.125 14.230469 9.128906 14.230469 9.128906 C 14.230469 9.128906 14.230469 9.128906 14.226562 9.128906 C 14.226562 9.128906 14.226562 9.128906 14.226562 9.132812 C 14.21875 9.140625 14.210938 9.148438 14.207031 9.15625 C 14.191406 9.171875 14.179688 9.1875 14.167969 9.203125 C 14.167969 9.203125 14.167969 9.207031 14.164062 9.207031 C 14.164062 9.207031 14.164062 9.210938 14.164062 9.210938 C 14.160156 9.210938 14.160156 9.214844 14.15625 9.214844 C 14.15625 9.21875 14.152344 9.222656 14.148438 9.226562 C 14.140625 9.238281 14.136719 9.246094 14.132812 9.253906 C 14.128906 9.253906 14.128906 9.257812 14.125 9.261719 C 14.113281 9.277344 14.101562 9.296875 14.09375 9.3125 C 14.089844 9.316406 14.085938 9.320312 14.085938 9.324219 L 14.078125 9.335938 C 14.078125 9.339844 14.078125 9.339844 14.078125 9.339844 C 14.070312 9.351562 14.0625 9.363281 14.054688 9.375 C 14.054688 9.378906 14.054688 9.378906 14.050781 9.382812 C 13.992188 9.492188 13.949219 9.609375 13.921875 9.730469 C 13.921875 9.730469 13.917969 9.734375 13.917969 9.734375 C 13.914062 9.753906 13.910156 9.785156 13.90625 9.8125 C 13.902344 9.832031 13.898438 9.851562 13.898438 9.867188 C 13.894531 9.871094 13.894531 9.875 13.894531 9.878906 C 13.890625 9.925781 13.886719 9.980469 13.886719 10.03125 C 13.886719 10.792969 14.511719 11.410156 15.28125 11.410156 L 16.375 11.410156 L 16.375 14.414062 L 13.136719 14.414062 C 13.03125 14.414062 12.941406 14.5 12.941406 14.605469 L 12.941406 15.875 C 12.941406 16.140625 12.839844 16.390625 12.648438 16.578125 C 12.628906 16.597656 12.609375 16.617188 12.585938 16.636719 C 12.582031 16.636719 12.578125 16.640625 12.578125 16.640625 C 12.558594 16.65625 12.539062 16.671875 12.519531 16.6875 C 12.515625 16.6875 12.515625 16.6875 12.515625 16.6875 C 12.507812 16.695312 12.5 16.699219 12.492188 16.703125 L 12.488281 16.707031 C 12.464844 16.722656 12.445312 16.734375 12.425781 16.746094 C 12.417969 16.75 12.410156 16.753906 12.402344 16.757812 C 12.382812 16.765625 12.363281 16.777344 12.335938 16.785156 C 12.328125 16.792969 12.316406 16.796875 12.308594 16.796875 L 12.273438 16.8125 C 12.265625 16.816406 12.257812 16.816406 12.25 16.820312 C 12.246094 16.820312 12.242188 16.820312 12.238281 16.824219 C 12.234375 16.824219 12.226562 16.828125 12.21875 16.828125 C 12.214844 16.832031 12.210938 16.832031 12.207031 16.832031 C 12.199219 16.835938 12.1875 16.835938 12.179688 16.839844 C 12.144531 16.847656 12.109375 16.855469 12.078125 16.859375 C 12.054688 16.863281 12.03125 16.863281 12.007812 16.867188 C 12.003906 16.867188 11.996094 16.867188 11.988281 16.867188 L 11.980469 16.867188 C 11.976562 16.867188 11.972656 16.867188 11.96875 16.867188 C 11.964844 16.867188 11.964844 16.867188 11.960938 16.867188 C 11.960938 16.867188 11.957031 16.867188 11.957031 16.867188 L 11.917969 16.867188 C 11.914062 16.867188 11.914062 16.867188 11.910156 16.867188 C 11.910156 16.867188 11.902344 16.867188 11.898438 16.867188 L 11.882812 16.867188 C 11.878906 16.867188 11.871094 16.867188 11.863281 16.867188 C 11.839844 16.863281 11.820312 16.863281 11.796875 16.859375 C 11.761719 16.855469 11.726562 16.847656 11.695312 16.839844 C 11.683594 16.835938 11.675781 16.835938 11.664062 16.832031 C 11.660156 16.832031 11.660156 16.832031 11.65625 16.828125 C 11.648438 16.828125 11.640625 16.824219 11.632812 16.824219 C 11.628906 16.820312 11.628906 16.820312 11.625 16.820312 C 11.617188 16.816406 11.609375 16.816406 11.601562 16.8125 L 11.5625 16.800781 C 11.554688 16.796875 11.546875 16.792969 11.53125 16.785156 C 11.511719 16.777344 11.492188 16.765625 11.46875 16.757812 C 11.460938 16.753906 11.457031 16.75 11.445312 16.742188 C 11.425781 16.734375 11.40625 16.722656 11.382812 16.707031 C 11.382812 16.707031 11.378906 16.703125 11.378906 16.703125 C 11.371094 16.699219 11.367188 16.695312 11.359375 16.6875 C 11.359375 16.6875 11.355469 16.6875 11.355469 16.683594 C 11.335938 16.671875 11.316406 16.65625 11.296875 16.640625 C 11.292969 16.640625 11.292969 16.636719 11.289062 16.636719 C 11.265625 16.617188 11.246094 16.597656 11.226562 16.578125 C 11.035156 16.390625 10.929688 16.140625 10.929688 15.875 L 10.929688 14.605469 C 10.929688 14.5 10.84375 14.414062 10.734375 14.414062 L 7.78125 14.414062 C 7.648438 13.808594 7.582031 13.191406 7.582031 12.5625 C 7.582031 9.960938 8.726562 7.613281 10.542969 5.988281 Z M 9.117188 17.519531 C 8.542969 16.679688 8.125 15.761719 7.871094 14.796875 L 10.542969 14.796875 L 10.542969 15.875 C 10.542969 16.242188 10.6875 16.589844 10.949219 16.847656 C 10.976562 16.878906 11.011719 16.90625 11.046875 16.9375 C 11.050781 16.941406 11.054688 16.941406 11.054688 16.945312 C 11.078125 16.960938 11.101562 16.980469 11.128906 16.996094 C 11.128906 16.996094 11.128906 17 11.128906 17 C 11.140625 17.007812 11.152344 17.015625 11.167969 17.023438 C 11.167969 17.027344 11.167969 17.027344 11.167969 17.027344 C 11.171875 17.027344 11.171875 17.027344 11.171875 17.027344 C 11.179688 17.03125 11.1875 17.039062 11.199219 17.042969 C 11.203125 17.046875 11.207031 17.050781 11.214844 17.054688 C 11.226562 17.0625 11.242188 17.070312 11.253906 17.078125 C 11.269531 17.085938 11.28125 17.09375 11.292969 17.097656 C 11.292969 17.097656 11.292969 17.097656 11.296875 17.097656 C 11.296875 17.097656 11.296875 17.101562 11.296875 17.101562 C 11.324219 17.113281 11.351562 17.128906 11.378906 17.136719 C 11.390625 17.144531 11.402344 17.148438 11.414062 17.152344 C 11.414062 17.152344 11.414062 17.152344 11.417969 17.152344 C 11.417969 17.15625 11.417969 17.15625 11.421875 17.15625 C 11.433594 17.160156 11.449219 17.167969 11.464844 17.171875 C 11.480469 17.179688 11.496094 17.183594 11.507812 17.1875 C 11.523438 17.191406 11.539062 17.195312 11.554688 17.199219 C 11.558594 17.203125 11.5625 17.203125 11.566406 17.203125 C 11.578125 17.207031 11.589844 17.210938 11.601562 17.214844 C 11.648438 17.226562 11.695312 17.234375 11.742188 17.238281 C 11.773438 17.246094 11.804688 17.246094 11.835938 17.25 C 11.839844 17.25 11.839844 17.25 11.84375 17.25 L 11.859375 17.25 C 11.867188 17.25 11.878906 17.25 11.886719 17.253906 C 11.886719 17.253906 11.886719 17.253906 11.890625 17.253906 C 11.898438 17.253906 11.902344 17.253906 11.910156 17.253906 C 11.910156 17.253906 11.914062 17.253906 11.914062 17.253906 C 11.921875 17.253906 11.929688 17.253906 11.9375 17.253906 C 11.945312 17.253906 11.949219 17.253906 11.957031 17.253906 C 11.960938 17.253906 11.960938 17.253906 11.960938 17.253906 C 11.96875 17.253906 11.976562 17.253906 11.984375 17.253906 C 11.984375 17.253906 11.984375 17.253906 11.988281 17.253906 C 11.996094 17.25 12.003906 17.25 12.011719 17.25 L 12.019531 17.25 C 12.023438 17.25 12.027344 17.25 12.03125 17.25 C 12.03125 17.25 12.035156 17.25 12.035156 17.25 C 12.035156 17.25 12.039062 17.25 12.039062 17.25 C 12.070312 17.246094 12.101562 17.242188 12.132812 17.238281 C 12.179688 17.234375 12.226562 17.226562 12.269531 17.214844 C 12.289062 17.210938 12.304688 17.207031 12.320312 17.199219 C 12.335938 17.195312 12.347656 17.191406 12.363281 17.1875 C 12.378906 17.183594 12.394531 17.179688 12.410156 17.171875 C 12.421875 17.167969 12.4375 17.160156 12.453125 17.15625 C 12.457031 17.152344 12.460938 17.152344 12.464844 17.148438 C 12.472656 17.148438 12.476562 17.144531 12.480469 17.144531 C 12.488281 17.140625 12.492188 17.140625 12.496094 17.136719 C 12.523438 17.128906 12.546875 17.113281 12.574219 17.101562 C 12.578125 17.101562 12.578125 17.101562 12.578125 17.097656 C 12.582031 17.097656 12.582031 17.097656 12.582031 17.097656 C 12.589844 17.09375 12.59375 17.089844 12.597656 17.089844 C 12.605469 17.085938 12.609375 17.082031 12.613281 17.078125 C 12.628906 17.070312 12.644531 17.0625 12.65625 17.054688 C 12.664062 17.050781 12.671875 17.046875 12.679688 17.039062 C 12.6875 17.035156 12.695312 17.03125 12.703125 17.027344 L 12.707031 17.023438 C 12.71875 17.015625 12.726562 17.011719 12.734375 17.007812 C 12.738281 17.003906 12.742188 17 12.746094 16.996094 C 12.769531 16.980469 12.792969 16.964844 12.816406 16.945312 C 12.820312 16.941406 12.820312 16.941406 12.824219 16.9375 C 12.863281 16.910156 12.894531 16.878906 12.921875 16.847656 C 13.1875 16.589844 13.332031 16.242188 13.332031 15.875 L 13.332031 14.796875 L 16.375 14.796875 L 16.375 17.796875 L 15.28125 17.796875 C 14.535156 17.796875 13.921875 18.371094 13.886719 19.109375 C 13.886719 19.132812 13.886719 19.15625 13.886719 19.179688 C 13.886719 19.203125 13.886719 19.222656 13.886719 19.242188 C 13.886719 19.246094 13.886719 19.246094 13.886719 19.246094 C 13.925781 19.980469 14.535156 20.554688 15.28125 20.554688 L 16.375 20.554688 L 16.375 23.558594 L 13.136719 23.558594 C 13.121094 23.558594 13.109375 23.5625 13.09375 23.566406 L 12.335938 23.566406 C 12.242188 23.566406 12.15625 23.578125 12.070312 23.597656 C 11.558594 20.675781 9.261719 17.707031 9.117188 17.519531 Z M 19.191406 28.371094 L 19.191406 28.460938 C 19.191406 28.84375 18.875 29.15625 18.488281 29.15625 L 14.652344 29.15625 C 14.261719 29.15625 13.945312 28.84375 13.945312 28.460938 L 13.945312 28.375 C 13.945312 27.992188 14.261719 27.679688 14.648438 27.675781 L 18.488281 27.675781 C 18.878906 27.679688 19.191406 27.992188 19.191406 28.371094 Z M 21.507812 26.597656 C 21.507812 26.980469 21.191406 27.292969 20.804688 27.292969 L 14.652344 27.292969 C 14.648438 27.292969 14.648438 27.292969 14.648438 27.292969 L 12.335938 27.292969 C 11.945312 27.292969 11.628906 26.980469 11.628906 26.597656 L 11.628906 26.507812 C 11.628906 26.125 11.945312 25.8125 12.335938 25.8125 L 20.804688 25.8125 C 21.191406 25.8125 21.507812 26.125 21.507812 26.507812 Z M 21.507812 24.734375 C 21.507812 25.117188 21.191406 25.429688 20.804688 25.429688 L 20.171875 25.429688 C 20.171875 25.429688 20.167969 25.429688 20.167969 25.429688 L 12.976562 25.429688 C 12.972656 25.429688 12.972656 25.429688 12.972656 25.429688 L 12.335938 25.429688 C 11.945312 25.429688 11.628906 25.117188 11.628906 24.734375 L 11.628906 24.644531 C 11.628906 24.261719 11.945312 23.949219 12.335938 23.949219 L 13.132812 23.949219 C 13.136719 23.949219 13.136719 23.949219 13.136719 23.949219 C 13.136719 23.949219 13.140625 23.949219 13.140625 23.949219 L 20.804688 23.949219 C 21.191406 23.949219 21.507812 24.261719 21.507812 24.644531 Z M 24.023438 17.519531 C 23.875 17.707031 21.578125 20.675781 21.066406 23.597656 C 20.980469 23.578125 20.894531 23.566406 20.804688 23.566406 L 16.761719 23.566406 L 16.761719 20.359375 C 16.761719 20.253906 16.675781 20.167969 16.570312 20.167969 L 15.28125 20.167969 C 14.746094 20.167969 14.304688 19.753906 14.277344 19.222656 C 14.277344 19.207031 14.277344 19.195312 14.277344 19.179688 C 14.277344 19.175781 14.277344 19.175781 14.277344 19.175781 C 14.277344 19.160156 14.277344 19.144531 14.277344 19.128906 C 14.304688 18.597656 14.746094 18.183594 15.28125 18.183594 L 16.570312 18.183594 C 16.675781 18.183594 16.761719 18.097656 16.761719 17.992188 L 16.761719 14.796875 L 20 14.796875 C 20.09375 14.796875 20.171875 14.726562 20.191406 14.636719 C 20.195312 14.625 20.195312 14.613281 20.195312 14.597656 L 20.195312 13.335938 C 20.195312 13.332031 20.195312 13.332031 20.195312 13.332031 C 20.195312 13.316406 20.195312 13.300781 20.195312 13.289062 C 20.195312 13.285156 20.195312 13.285156 20.195312 13.28125 C 20.226562 12.753906 20.664062 12.339844 21.203125 12.339844 C 21.589844 12.339844 21.949219 12.566406 22.113281 12.914062 C 22.117188 12.917969 22.117188 12.921875 22.117188 12.925781 C 22.128906 12.945312 22.136719 12.96875 22.148438 12.992188 C 22.152344 13.007812 22.160156 13.023438 22.164062 13.039062 C 22.167969 13.050781 22.167969 13.058594 22.171875 13.066406 C 22.171875 13.070312 22.171875 13.074219 22.175781 13.078125 C 22.175781 13.078125 22.175781 13.082031 22.175781 13.082031 C 22.175781 13.085938 22.175781 13.085938 22.175781 13.085938 L 22.179688 13.09375 C 22.179688 13.097656 22.179688 13.101562 22.179688 13.105469 C 22.179688 13.105469 22.183594 13.109375 22.183594 13.109375 C 22.183594 13.121094 22.1875 13.128906 22.1875 13.136719 C 22.1875 13.140625 22.191406 13.144531 22.191406 13.148438 C 22.195312 13.164062 22.195312 13.175781 22.199219 13.191406 C 22.199219 13.191406 22.199219 13.195312 22.199219 13.199219 C 22.199219 13.203125 22.199219 13.210938 22.199219 13.214844 C 22.203125 13.21875 22.203125 13.222656 22.203125 13.226562 C 22.203125 13.230469 22.203125 13.230469 22.203125 13.230469 C 22.203125 13.234375 22.203125 13.238281 22.203125 13.242188 C 22.203125 13.246094 22.203125 13.246094 22.203125 13.25 C 22.207031 13.257812 22.207031 13.265625 22.207031 13.273438 L 22.207031 13.277344 C 22.207031 13.296875 22.207031 13.3125 22.207031 13.328125 L 22.207031 14.597656 C 22.207031 14.601562 22.207031 14.601562 22.207031 14.605469 C 22.207031 14.710938 22.296875 14.796875 22.402344 14.796875 L 25.265625 14.796875 C 25.015625 15.761719 24.597656 16.679688 24.023438 17.519531 Z M 24.023438 17.519531 "/>
</g>
</g>
</svg>
