<?xml version="1.0" encoding="UTF-8"?>
<svg xmlns="http://www.w3.org/2000/svg" xmlns:xlink="http://www.w3.org/1999/xlink" width="33pt" height="32.999998pt" viewBox="0 0 33 32.999998" version="1.2">
<defs>
<clipPath id="clip1">
  <path d="M 5 3.304688 L 28.25 3.304688 L 28.25 29.542969 L 5 29.542969 Z M 5 3.304688 "/>
</clipPath>
</defs>
<g id="surface1">
<rect x="0" y="0" width="33" height="32.999998" style="fill:rgb(100%,100%,100%);fill-opacity:1;stroke:none;"/>
<rect x="0" y="0" width="33" height="32.999998" style="fill:rgb(100%,100%,100%);fill-opacity:1;stroke:none;"/>
<g clip-path="url(#clip1)" clip-rule="nonzero">
<path style=" stroke:none;fill-rule:nonzero;fill:rgb(84.709167%,32.939148%,89.019775%);fill-opacity:1;" d="M 25.398438 16.097656 C 24.617188 15.152344 23.699219 14.21875 22.667969 13.332031 C 22.460938 11.488281 22.070312 9.769531 21.511719 8.273438 C 21.675781 8.242188 21.84375 8.210938 22.007812 8.1875 C 22.632812 8.085938 23.214844 8.035156 23.757812 8.035156 C 24.3125 8.035156 24.824219 8.089844 25.285156 8.195312 C 26.191406 8.40625 26.859375 8.816406 27.265625 9.417969 C 27.675781 10.015625 27.808594 10.78125 27.660156 11.6875 C 27.511719 12.589844 27.09375 13.59375 26.421875 14.667969 C 26.121094 15.144531 25.777344 15.621094 25.398438 16.097656 Z M 26.382812 18.382812 C 27.035156 19.46875 27.429688 20.480469 27.558594 21.390625 C 27.683594 22.296875 27.535156 23.058594 27.117188 23.652344 C 26.695312 24.242188 26.019531 24.640625 25.105469 24.832031 C 24.195312 25.023438 23.09375 25.003906 21.832031 24.773438 C 21.710938 24.75 21.585938 24.726562 21.464844 24.699219 C 22.039062 23.199219 22.445312 21.460938 22.660156 19.59375 C 23.683594 18.742188 24.605469 17.84375 25.390625 16.933594 C 25.761719 17.414062 26.09375 17.898438 26.382812 18.382812 Z M 20.589844 25.410156 C 20.058594 26.558594 19.441406 27.457031 18.761719 28.082031 C 18.078125 28.707031 17.359375 29.023438 16.625 29.023438 C 15.890625 29.023438 15.171875 28.707031 14.488281 28.082031 C 13.804688 27.457031 13.191406 26.558594 12.660156 25.410156 C 12.589844 25.261719 12.523438 25.109375 12.457031 24.953125 C 13.773438 24.640625 15.15625 24.144531 16.550781 23.492188 C 17.976562 24.195312 19.394531 24.730469 20.742188 25.070312 C 20.691406 25.183594 20.640625 25.296875 20.589844 25.410156 Z M 11.242188 24.664062 C 9.976562 24.871094 8.871094 24.867188 7.964844 24.65625 C 7.058594 24.445312 6.390625 24.035156 5.984375 23.433594 C 5.574219 22.832031 5.441406 22.070312 5.589844 21.164062 C 5.738281 20.261719 6.152344 19.257812 6.828125 18.183594 C 7.128906 17.707031 7.472656 17.226562 7.851562 16.753906 C 8.632812 17.699219 9.550781 18.628906 10.582031 19.519531 C 10.789062 21.363281 11.179688 23.082031 11.738281 24.574219 C 11.570312 24.609375 11.40625 24.640625 11.242188 24.664062 Z M 6.867188 14.46875 C 6.214844 13.378906 5.820312 12.367188 5.691406 11.460938 C 5.566406 10.550781 5.714844 9.792969 6.132812 9.199219 C 6.554688 8.609375 7.230469 8.210938 8.140625 8.019531 C 8.554688 7.933594 9.007812 7.886719 9.5 7.886719 C 10.089844 7.886719 10.730469 7.953125 11.417969 8.078125 C 11.539062 8.097656 11.664062 8.125 11.785156 8.148438 C 11.210938 9.652344 10.804688 11.390625 10.589844 13.253906 C 9.566406 14.109375 8.644531 15.007812 7.859375 15.917969 C 7.488281 15.433594 7.15625 14.949219 6.867188 14.46875 Z M 20.191406 11.417969 C 19.238281 10.761719 18.265625 10.175781 17.292969 9.664062 C 18.554688 9.097656 19.800781 8.664062 20.988281 8.386719 C 21.488281 9.707031 21.855469 11.214844 22.074219 12.828125 C 21.476562 12.34375 20.847656 11.871094 20.191406 11.417969 Z M 11.183594 12.773438 C 11.410156 11.128906 11.789062 9.601562 12.308594 8.269531 C 13.523438 8.570312 14.804688 9.039062 16.097656 9.652344 C 15.117188 10.140625 14.132812 10.710938 13.167969 11.34375 C 12.476562 11.800781 11.8125 12.277344 11.183594 12.773438 Z M 10.503906 18.753906 C 9.640625 17.96875 8.863281 17.160156 8.195312 16.339844 C 8.867188 15.546875 9.648438 14.765625 10.511719 14.011719 C 10.445312 14.800781 10.410156 15.605469 10.410156 16.425781 C 10.410156 17.214844 10.441406 17.992188 10.503906 18.753906 Z M 15.957031 23.1875 C 14.695312 23.753906 13.449219 24.1875 12.261719 24.464844 C 11.761719 23.144531 11.394531 21.636719 11.175781 20.023438 C 11.773438 20.507812 12.402344 20.980469 13.058594 21.433594 C 14.011719 22.089844 14.984375 22.675781 15.957031 23.1875 Z M 22.066406 20.078125 C 21.839844 21.722656 21.457031 23.25 20.941406 24.582031 C 19.722656 24.28125 18.445312 23.8125 17.148438 23.199219 C 18.132812 22.707031 19.117188 22.140625 20.082031 21.507812 C 20.773438 21.050781 21.4375 20.570312 22.066406 20.078125 Z M 22.746094 14.097656 C 23.609375 14.882812 24.386719 15.691406 25.054688 16.511719 C 24.382812 17.304688 23.601562 18.085938 22.738281 18.839844 C 22.804688 18.050781 22.839844 17.246094 22.839844 16.425781 C 22.839844 15.636719 22.808594 14.859375 22.746094 14.097656 Z M 22.308594 16.425781 C 22.308594 17.417969 22.257812 18.390625 22.15625 19.332031 C 21.417969 19.9375 20.625 20.519531 19.789062 21.070312 C 18.722656 21.773438 17.636719 22.390625 16.554688 22.910156 C 15.488281 22.367188 14.414062 21.730469 13.363281 21.007812 C 12.558594 20.453125 11.796875 19.867188 11.085938 19.261719 C 10.988281 18.34375 10.941406 17.390625 10.941406 16.425781 C 10.941406 15.433594 10.992188 14.460938 11.09375 13.519531 C 11.832031 12.914062 12.625 12.332031 13.460938 11.777344 C 14.527344 11.078125 15.613281 10.460938 16.695312 9.941406 C 17.761719 10.484375 18.835938 11.121094 19.886719 11.84375 C 20.691406 12.398438 21.453125 12.984375 22.164062 13.589844 C 22.261719 14.507812 22.308594 15.457031 22.308594 16.425781 Z M 12.660156 7.441406 C 13.191406 6.292969 13.804688 5.394531 14.488281 4.769531 C 15.171875 4.144531 15.890625 3.828125 16.625 3.828125 C 17.359375 3.828125 18.078125 4.144531 18.761719 4.769531 C 19.441406 5.394531 20.058594 6.292969 20.589844 7.441406 C 20.660156 7.589844 20.726562 7.742188 20.792969 7.898438 C 19.476562 8.210938 18.09375 8.707031 16.699219 9.359375 C 15.273438 8.65625 13.855469 8.121094 12.507812 7.78125 C 12.558594 7.667969 12.609375 7.554688 12.660156 7.441406 Z M 27.707031 9.125 C 26.761719 7.738281 24.707031 7.21875 21.921875 7.671875 C 21.722656 7.703125 21.519531 7.742188 21.316406 7.78125 C 21.238281 7.59375 21.15625 7.40625 21.074219 7.226562 C 19.90625 4.699219 18.324219 3.304688 16.625 3.304688 C 14.925781 3.304688 13.34375 4.699219 12.175781 7.226562 C 12.109375 7.367188 12.046875 7.511719 11.984375 7.65625 C 11.828125 7.625 11.671875 7.59375 11.515625 7.5625 C 8.738281 7.058594 6.675781 7.53125 5.699219 8.902344 C 4.722656 10.269531 4.976562 12.34375 6.410156 14.734375 C 6.730469 15.265625 7.101562 15.800781 7.515625 16.332031 C 7.089844 16.855469 6.707031 17.382812 6.378906 17.90625 C 4.894531 20.269531 4.597656 22.335938 5.542969 23.722656 C 6.265625 24.785156 7.636719 25.339844 9.488281 25.339844 C 10.058594 25.339844 10.671875 25.285156 11.328125 25.179688 C 11.527344 25.148438 11.730469 25.109375 11.933594 25.070312 C 12.011719 25.257812 12.09375 25.445312 12.175781 25.625 C 13.34375 28.152344 14.925781 29.542969 16.625 29.542969 C 18.324219 29.542969 19.90625 28.152344 21.074219 25.625 C 21.140625 25.484375 21.203125 25.339844 21.265625 25.191406 C 21.421875 25.226562 21.578125 25.257812 21.734375 25.285156 C 22.460938 25.417969 23.136719 25.484375 23.757812 25.484375 C 25.515625 25.484375 26.832031 24.960938 27.550781 23.949219 C 28.523438 22.582031 28.273438 20.507812 26.839844 18.117188 C 26.519531 17.585938 26.148438 17.050781 25.734375 16.519531 C 26.160156 15.996094 26.542969 15.46875 26.871094 14.945312 C 28.355469 12.582031 28.652344 10.515625 27.707031 9.125 "/>
</g>
<path style=" stroke:none;fill-rule:nonzero;fill:rgb(84.709167%,32.939148%,89.019775%);fill-opacity:1;" d="M 18.730469 13.871094 C 18.203125 14.109375 17.433594 14.242188 16.613281 14.242188 C 15.796875 14.242188 15.027344 14.109375 14.496094 13.871094 C 14.140625 13.710938 13.925781 13.515625 13.925781 13.351562 C 13.925781 12.988281 14.972656 12.457031 16.613281 12.457031 C 18.257812 12.457031 19.304688 12.988281 19.304688 13.351562 C 19.304688 13.515625 19.089844 13.710938 18.730469 13.871094 Z M 16.613281 20.378906 C 14.972656 20.378906 13.925781 19.851562 13.925781 19.488281 L 13.925781 18.753906 C 14.066406 18.84375 14.234375 18.929688 14.429688 19.007812 C 15.015625 19.234375 15.792969 19.363281 16.613281 19.363281 C 17.4375 19.363281 18.214844 19.234375 18.800781 19.007812 C 18.996094 18.929688 19.164062 18.84375 19.304688 18.753906 L 19.304688 19.488281 C 19.304688 19.851562 18.257812 20.378906 16.613281 20.378906 Z M 16.613281 15.757812 C 14.972656 15.757812 13.925781 15.230469 13.925781 14.867188 L 13.925781 14.15625 C 14.023438 14.222656 14.140625 14.285156 14.277344 14.347656 C 14.871094 14.613281 15.726562 14.765625 16.613281 14.765625 C 17.503906 14.765625 18.355469 14.613281 18.953125 14.347656 C 19.089844 14.285156 19.203125 14.222656 19.304688 14.15625 L 19.304688 14.867188 C 19.304688 15.230469 18.257812 15.757812 16.613281 15.757812 Z M 16.613281 17.300781 C 14.972656 17.300781 13.925781 16.769531 13.925781 16.40625 L 13.925781 15.671875 C 14.066406 15.765625 14.234375 15.847656 14.429688 15.925781 C 15.015625 16.152344 15.792969 16.28125 16.613281 16.28125 C 17.4375 16.28125 18.214844 16.152344 18.800781 15.925781 C 18.996094 15.847656 19.164062 15.765625 19.304688 15.671875 L 19.304688 16.40625 C 19.304688 16.769531 18.257812 17.300781 16.613281 17.300781 Z M 13.925781 17.210938 C 14.066406 17.304688 14.234375 17.390625 14.429688 17.464844 C 15.015625 17.695312 15.792969 17.820312 16.613281 17.820312 C 17.4375 17.820312 18.214844 17.695312 18.800781 17.464844 C 18.996094 17.390625 19.164062 17.304688 19.304688 17.210938 L 19.304688 17.949219 C 19.304688 18.3125 18.257812 18.839844 16.613281 18.839844 C 14.972656 18.839844 13.925781 18.3125 13.925781 17.949219 Z M 18.800781 12.292969 C 18.214844 12.0625 17.4375 11.9375 16.613281 11.9375 C 15.792969 11.9375 15.015625 12.0625 14.429688 12.292969 C 13.761719 12.554688 13.394531 12.929688 13.394531 13.351562 L 13.394531 19.488281 C 13.394531 19.910156 13.761719 20.285156 14.429688 20.546875 C 15.015625 20.777344 15.792969 20.902344 16.613281 20.902344 C 17.4375 20.902344 18.214844 20.777344 18.800781 20.546875 C 19.46875 20.285156 19.835938 19.910156 19.835938 19.488281 L 19.835938 13.351562 C 19.835938 12.929688 19.46875 12.554688 18.800781 12.292969 "/>
</g>
</svg>
