<?xml version="1.0" encoding="UTF-8"?>
<svg xmlns="http://www.w3.org/2000/svg" xmlns:xlink="http://www.w3.org/1999/xlink" width="33pt" height="32.999998pt" viewBox="0 0 33 32.999998" version="1.2">
<defs>
<clipPath id="clip1">
  <path d="M 3.300781 4.09375 L 18 4.09375 L 18 28.84375 L 3.300781 28.84375 Z M 3.300781 4.09375 "/>
</clipPath>
<clipPath id="clip2">
  <path d="M 24 4.09375 L 28 4.09375 L 28 8 L 24 8 Z M 24 4.09375 "/>
</clipPath>
<clipPath id="clip3">
  <path d="M 26 24 L 29.550781 24 L 29.550781 28 L 26 28 Z M 26 24 "/>
</clipPath>
</defs>
<g id="surface1">
<rect x="0" y="0" width="33" height="32.999998" style="fill:rgb(100%,100%,100%);fill-opacity:1;stroke:none;"/>
<rect x="0" y="0" width="33" height="32.999998" style="fill:rgb(100%,100%,100%);fill-opacity:1;stroke:none;"/>
<g clip-path="url(#clip1)" clip-rule="nonzero">
<path style=" stroke:none;fill-rule:nonzero;fill:rgb(43.528748%,25.489807%,96.469116%);fill-opacity:1;" d="M 11.445312 28.046875 L 17.101562 28.046875 L 17.101562 22.617188 L 15.070312 22.617188 C 14.851562 22.617188 14.671875 22.441406 14.671875 22.222656 L 14.671875 12.957031 L 13.519531 12.957031 C 13.300781 12.957031 13.121094 12.777344 13.121094 12.558594 L 13.121094 7.257812 C 13.121094 7.039062 13.300781 6.863281 13.519531 6.863281 L 15.078125 6.863281 L 15.078125 4.925781 C 14.738281 4.921875 14.386719 4.925781 14.03125 4.933594 C 12.960938 4.96875 12.042969 5.136719 11.226562 5.453125 C 9.996094 5.925781 9.007812 6.546875 8.210938 7.34375 C 7.699219 7.855469 7.304688 8.488281 7.042969 9.222656 C 6.902344 9.613281 6.777344 10.011719 6.648438 10.410156 L 6.351562 11.324219 C 6.261719 11.585938 6.175781 11.84375 6.101562 12.105469 C 5.949219 12.664062 5.964844 13.078125 6.148438 13.449219 C 6.226562 13.609375 6.277344 13.773438 6.320312 13.925781 C 6.429688 14.328125 6.359375 14.726562 6.117188 15.042969 C 5.6875 15.597656 5.296875 16.203125 4.917969 16.785156 L 4.648438 17.199219 C 4.582031 17.304688 4.507812 17.40625 4.429688 17.507812 C 4.367188 17.585938 4.304688 17.667969 4.25 17.753906 C 4.109375 17.96875 4.179688 18.082031 4.203125 18.125 C 4.269531 18.230469 4.394531 18.335938 4.511719 18.425781 C 4.648438 18.53125 4.851562 18.585938 5.066406 18.640625 C 5.527344 18.757812 5.730469 19.0625 5.664062 19.480469 C 5.640625 19.632812 5.59375 19.855469 5.492188 20.058594 C 5.460938 20.136719 5.523438 20.363281 5.601562 20.417969 C 5.679688 20.46875 5.746094 20.527344 5.8125 20.582031 L 5.882812 20.636719 C 6.035156 20.757812 6.078125 20.976562 5.980469 21.148438 L 5.917969 21.253906 C 5.886719 21.300781 5.859375 21.347656 5.835938 21.398438 C 5.816406 21.445312 5.796875 21.488281 5.890625 21.597656 C 5.988281 21.714844 6.058594 21.839844 6.121094 21.949219 L 6.171875 22.03125 C 6.375 22.375 6.273438 22.71875 6.242188 22.832031 C 6.136719 23.183594 6.105469 23.472656 6.132812 23.742188 C 6.199219 24.308594 6.496094 24.660156 7.066406 24.839844 C 7.457031 24.964844 7.878906 24.984375 8.324219 25 L 8.664062 25.011719 C 9.046875 25.027344 9.445312 25.039062 9.847656 25.121094 C 10.332031 25.222656 10.726562 25.449219 11.019531 25.792969 C 11.222656 26.035156 11.320312 26.292969 11.300781 26.558594 C 11.265625 27.050781 11.347656 27.539062 11.445312 28.046875 Z M 17.496094 28.839844 L 11.109375 28.839844 C 10.902344 28.839844 10.730469 28.679688 10.714844 28.472656 L 10.710938 28.414062 C 10.589844 27.800781 10.460938 27.167969 10.507812 26.5 C 10.511719 26.453125 10.480469 26.386719 10.414062 26.308594 C 10.234375 26.097656 10 25.964844 9.683594 25.902344 C 9.351562 25.832031 9.003906 25.820312 8.640625 25.808594 L 8.292969 25.796875 C 7.8125 25.777344 7.316406 25.757812 6.824219 25.597656 C 5.960938 25.324219 5.449219 24.710938 5.347656 23.835938 C 5.304688 23.457031 5.347656 23.066406 5.480469 22.605469 C 5.515625 22.484375 5.5 22.457031 5.488281 22.4375 L 5.4375 22.347656 C 5.386719 22.265625 5.34375 22.179688 5.28125 22.109375 C 4.949219 21.710938 5.003906 21.332031 5.105469 21.085938 C 5.109375 21.074219 5.117188 21.0625 5.121094 21.050781 C 4.742188 20.761719 4.574219 20.105469 4.785156 19.695312 C 4.828125 19.613281 4.855469 19.5 4.871094 19.410156 C 4.601562 19.339844 4.296875 19.261719 4.027344 19.054688 C 3.855469 18.921875 3.660156 18.757812 3.527344 18.542969 C 3.300781 18.167969 3.320312 17.722656 3.589844 17.316406 C 3.65625 17.214844 3.726562 17.121094 3.796875 17.023438 C 3.863281 16.941406 3.929688 16.855469 3.984375 16.765625 L 4.253906 16.355469 C 4.640625 15.753906 5.039062 15.136719 5.488281 14.554688 C 5.578125 14.4375 5.601562 14.300781 5.554688 14.136719 C 5.523438 14.023438 5.484375 13.902344 5.4375 13.800781 C 5.078125 13.078125 5.210938 12.367188 5.335938 11.898438 C 5.414062 11.617188 5.507812 11.34375 5.601562 11.070312 L 5.894531 10.167969 C 6.023438 9.761719 6.152344 9.355469 6.296875 8.953125 C 6.601562 8.109375 7.054688 7.378906 7.652344 6.78125 C 8.527344 5.902344 9.605469 5.222656 10.945312 4.707031 C 11.84375 4.363281 12.84375 4.175781 14.007812 4.140625 C 14.515625 4.125 15.015625 4.125 15.488281 4.140625 C 15.699219 4.148438 15.871094 4.324219 15.871094 4.539062 L 15.871094 7.257812 C 15.871094 7.480469 15.691406 7.65625 15.472656 7.65625 L 13.914062 7.65625 L 13.914062 12.160156 L 15.070312 12.160156 C 15.289062 12.160156 15.46875 12.339844 15.46875 12.558594 L 15.46875 21.824219 L 17.496094 21.824219 C 17.714844 21.824219 17.894531 22 17.894531 22.222656 L 17.894531 28.445312 C 17.894531 28.664062 17.714844 28.839844 17.496094 28.839844 "/>
</g>
<path style=" stroke:none;fill-rule:nonzero;fill:rgb(43.528748%,25.489807%,96.469116%);fill-opacity:1;" d="M 24.5625 6.222656 L 15.472656 6.222656 C 15.253906 6.222656 15.078125 6.042969 15.078125 5.824219 C 15.078125 5.605469 15.253906 5.425781 15.472656 5.425781 L 24.5625 5.425781 C 24.78125 5.425781 24.960938 5.605469 24.960938 5.824219 C 24.960938 6.042969 24.78125 6.222656 24.5625 6.222656 "/>
<path style=" stroke:none;fill-rule:nonzero;fill:rgb(43.528748%,25.489807%,96.469116%);fill-opacity:1;" d="M 21.847656 14.039062 L 15.472656 14.039062 C 15.253906 14.039062 15.078125 13.859375 15.078125 13.640625 C 15.078125 13.421875 15.253906 13.242188 15.472656 13.242188 L 21.847656 13.242188 C 22.066406 13.242188 22.246094 13.421875 22.246094 13.640625 C 22.246094 13.859375 22.066406 14.039062 21.847656 14.039062 "/>
<path style=" stroke:none;fill-rule:nonzero;fill:rgb(43.528748%,25.489807%,96.469116%);fill-opacity:1;" d="M 25.046875 17.945312 L 15.472656 17.945312 C 15.253906 17.945312 15.078125 17.769531 15.078125 17.546875 C 15.078125 17.328125 15.253906 17.148438 15.472656 17.148438 L 25.046875 17.148438 C 25.265625 17.148438 25.441406 17.328125 25.441406 17.546875 C 25.441406 17.769531 25.265625 17.945312 25.046875 17.945312 "/>
<path style=" stroke:none;fill-rule:nonzero;fill:rgb(43.528748%,25.489807%,96.469116%);fill-opacity:1;" d="M 21.191406 22.617188 L 15.429688 22.617188 C 15.210938 22.617188 15.03125 22.4375 15.03125 22.21875 C 15.03125 22 15.210938 21.820312 15.429688 21.820312 L 21.191406 21.820312 C 21.410156 21.820312 21.585938 22 21.585938 22.21875 C 21.585938 22.4375 21.410156 22.617188 21.191406 22.617188 "/>
<path style=" stroke:none;fill-rule:nonzero;fill:rgb(43.528748%,25.489807%,96.469116%);fill-opacity:1;" d="M 26.492188 26.257812 L 17.496094 26.257812 C 17.277344 26.257812 17.101562 26.082031 17.101562 25.859375 C 17.101562 25.640625 17.277344 25.464844 17.496094 25.464844 L 26.492188 25.464844 C 26.710938 25.464844 26.886719 25.640625 26.886719 25.859375 C 26.886719 26.082031 26.710938 26.257812 26.492188 26.257812 "/>
<path style=" stroke:none;fill-rule:nonzero;fill:rgb(43.528748%,25.489807%,96.469116%);fill-opacity:1;" d="M 19.34375 10.132812 L 13.519531 10.132812 C 13.300781 10.132812 13.121094 9.953125 13.121094 9.734375 C 13.121094 9.511719 13.300781 9.335938 13.519531 9.335938 L 19.34375 9.335938 C 19.5625 9.335938 19.738281 9.511719 19.738281 9.734375 C 19.738281 9.953125 19.5625 10.132812 19.34375 10.132812 "/>
<g clip-path="url(#clip2)" clip-rule="nonzero">
<path style=" stroke:none;fill-rule:nonzero;fill:rgb(43.528748%,25.489807%,96.469116%);fill-opacity:1;" d="M 25.894531 4.886719 C 25.378906 4.886719 24.960938 5.308594 24.960938 5.824219 C 24.960938 6.34375 25.378906 6.761719 25.894531 6.761719 C 26.410156 6.761719 26.828125 6.34375 26.828125 5.824219 C 26.828125 5.308594 26.410156 4.886719 25.894531 4.886719 Z M 25.894531 7.558594 C 24.941406 7.558594 24.167969 6.78125 24.167969 5.824219 C 24.167969 4.871094 24.941406 4.09375 25.894531 4.09375 C 26.847656 4.09375 27.621094 4.871094 27.621094 5.824219 C 27.621094 6.78125 26.847656 7.558594 25.894531 7.558594 "/>
</g>
<path style=" stroke:none;fill-rule:nonzero;fill:rgb(43.528748%,25.489807%,96.469116%);fill-opacity:1;" d="M 20.671875 8.796875 C 20.160156 8.796875 19.738281 9.214844 19.738281 9.734375 C 19.738281 10.25 20.160156 10.671875 20.671875 10.671875 C 21.1875 10.671875 21.609375 10.25 21.609375 9.734375 C 21.609375 9.214844 21.1875 8.796875 20.671875 8.796875 Z M 20.671875 11.464844 C 19.722656 11.464844 18.945312 10.6875 18.945312 9.734375 C 18.945312 8.777344 19.722656 8 20.671875 8 C 21.625 8 22.402344 8.777344 22.402344 9.734375 C 22.402344 10.6875 21.625 11.464844 20.671875 11.464844 "/>
<path style=" stroke:none;fill-rule:nonzero;fill:rgb(43.528748%,25.489807%,96.469116%);fill-opacity:1;" d="M 23.179688 12.703125 C 22.664062 12.703125 22.246094 13.125 22.246094 13.640625 C 22.246094 14.15625 22.664062 14.578125 23.179688 14.578125 C 23.695312 14.578125 24.113281 14.15625 24.113281 13.640625 C 24.113281 13.125 23.695312 12.703125 23.179688 12.703125 Z M 23.179688 15.375 C 22.226562 15.375 21.453125 14.597656 21.453125 13.640625 C 21.453125 12.6875 22.226562 11.90625 23.179688 11.90625 C 24.132812 11.90625 24.90625 12.6875 24.90625 13.640625 C 24.90625 14.597656 24.132812 15.375 23.179688 15.375 "/>
<path style=" stroke:none;fill-rule:nonzero;fill:rgb(43.528748%,25.489807%,96.469116%);fill-opacity:1;" d="M 26.375 16.609375 C 25.859375 16.609375 25.441406 17.03125 25.441406 17.546875 C 25.441406 18.066406 25.859375 18.484375 26.375 18.484375 C 26.890625 18.484375 27.3125 18.066406 27.3125 17.546875 C 27.3125 17.03125 26.890625 16.609375 26.375 16.609375 Z M 26.375 19.28125 C 25.425781 19.28125 24.648438 18.503906 24.648438 17.546875 C 24.648438 16.59375 25.425781 15.816406 26.375 15.816406 C 27.328125 15.816406 28.105469 16.59375 28.105469 17.546875 C 28.105469 18.503906 27.328125 19.28125 26.375 19.28125 "/>
<path style=" stroke:none;fill-rule:nonzero;fill:rgb(43.528748%,25.489807%,96.469116%);fill-opacity:1;" d="M 22.523438 21.28125 C 22.007812 21.28125 21.585938 21.703125 21.585938 22.21875 C 21.585938 22.734375 22.007812 23.15625 22.523438 23.15625 C 23.039062 23.15625 23.457031 22.734375 23.457031 22.21875 C 23.457031 21.703125 23.039062 21.28125 22.523438 21.28125 Z M 22.523438 23.953125 C 21.570312 23.953125 20.792969 23.175781 20.792969 22.21875 C 20.792969 21.265625 21.570312 20.484375 22.523438 20.484375 C 23.476562 20.484375 24.25 21.265625 24.25 22.21875 C 24.25 23.175781 23.476562 23.953125 22.523438 23.953125 "/>
<g clip-path="url(#clip3)" clip-rule="nonzero">
<path style=" stroke:none;fill-rule:nonzero;fill:rgb(43.528748%,25.489807%,96.469116%);fill-opacity:1;" d="M 27.820312 24.925781 C 27.308594 24.925781 26.886719 25.34375 26.886719 25.859375 C 26.886719 26.378906 27.308594 26.796875 27.820312 26.796875 C 28.335938 26.796875 28.757812 26.378906 28.757812 25.859375 C 28.757812 25.34375 28.335938 24.925781 27.820312 24.925781 Z M 27.820312 27.59375 C 26.871094 27.59375 26.09375 26.816406 26.09375 25.859375 C 26.09375 24.90625 26.871094 24.128906 27.820312 24.128906 C 28.773438 24.128906 29.550781 24.90625 29.550781 25.859375 C 29.550781 26.816406 28.773438 27.59375 27.820312 27.59375 "/>
</g>
</g>
</svg>
