<?xml version="1.0" encoding="UTF-8"?>
<svg xmlns="http://www.w3.org/2000/svg" xmlns:xlink="http://www.w3.org/1999/xlink" width="33pt" height="32.999998pt" viewBox="0 0 33 32.999998" version="1.2">
<defs>
<clipPath id="clip1">
  <path d="M 7.539062 5.113281 L 29.53125 5.113281 L 29.53125 27.613281 L 7.539062 27.613281 Z M 7.539062 5.113281 "/>
</clipPath>
<clipPath id="clip2">
  <path d="M 3.300781 8 L 15 8 L 15 17 L 3.300781 17 Z M 3.300781 8 "/>
</clipPath>
</defs>
<g id="surface1">
<rect x="0" y="0" width="33" height="32.999998" style="fill:rgb(100%,100%,100%);fill-opacity:1;stroke:none;"/>
<rect x="0" y="0" width="33" height="32.999998" style="fill:rgb(100%,100%,100%);fill-opacity:1;stroke:none;"/>
<g clip-path="url(#clip1)" clip-rule="nonzero">
<path style=" stroke:none;fill-rule:nonzero;fill:rgb(7.058716%,84.709167%,87.449646%);fill-opacity:1;" d="M 27.566406 5.117188 L 9.539062 5.117188 C 8.519531 5.0625 7.644531 5.835938 7.578125 6.851562 L 7.578125 10.605469 C 7.578125 10.84375 7.773438 11.039062 8.015625 11.039062 C 8.253906 11.039062 8.449219 10.84375 8.449219 10.605469 L 8.449219 6.851562 C 8.519531 6.320312 8.992188 5.941406 9.527344 5.984375 L 27.566406 5.984375 C 28.109375 5.925781 28.597656 6.3125 28.660156 6.851562 L 28.660156 21.214844 C 28.59375 21.746094 28.117188 22.128906 27.578125 22.082031 L 9.539062 22.082031 C 9.003906 22.128906 8.53125 21.746094 8.460938 21.214844 L 8.460938 19.164062 C 8.460938 18.921875 8.265625 18.730469 8.027344 18.730469 C 7.785156 18.730469 7.589844 18.921875 7.589844 19.164062 L 7.589844 21.214844 C 7.660156 22.226562 8.535156 22.996094 9.554688 22.945312 L 18.046875 22.945312 L 18.046875 26.773438 L 12.425781 26.773438 C 12.183594 26.773438 11.988281 26.964844 11.988281 27.207031 C 11.988281 27.445312 12.183594 27.640625 12.425781 27.640625 L 24.5 27.640625 C 24.738281 27.640625 24.933594 27.445312 24.933594 27.207031 C 24.933594 26.964844 24.738281 26.773438 24.5 26.773438 L 18.929688 26.773438 L 18.929688 22.96875 L 27.566406 22.96875 C 28.585938 23.019531 29.460938 22.25 29.53125 21.238281 L 29.53125 6.851562 C 29.460938 5.835938 28.585938 5.0625 27.566406 5.117188 "/>
</g>
<path style=" stroke:none;fill-rule:nonzero;fill:rgb(7.058716%,84.709167%,87.449646%);fill-opacity:1;" d="M 15.609375 12.289062 L 25.09375 12.289062 C 25.335938 12.289062 25.53125 12.09375 25.53125 11.855469 C 25.53125 11.617188 25.335938 11.425781 25.09375 11.425781 L 15.609375 11.425781 C 15.367188 11.425781 15.171875 11.617188 15.171875 11.855469 C 15.171875 12.09375 15.367188 12.289062 15.609375 12.289062 "/>
<path style=" stroke:none;fill-rule:nonzero;fill:rgb(7.058716%,84.709167%,87.449646%);fill-opacity:1;" d="M 15.609375 15.078125 L 25.09375 15.078125 C 25.335938 15.078125 25.53125 14.882812 25.53125 14.644531 C 25.53125 14.40625 25.335938 14.214844 25.09375 14.214844 L 15.609375 14.214844 C 15.367188 14.214844 15.171875 14.40625 15.171875 14.644531 C 15.171875 14.882812 15.367188 15.078125 15.609375 15.078125 "/>
<path style=" stroke:none;fill-rule:nonzero;fill:rgb(7.058716%,84.709167%,87.449646%);fill-opacity:1;" d="M 15.609375 18.015625 L 25.09375 18.015625 C 25.335938 18.015625 25.53125 17.820312 25.53125 17.582031 C 25.53125 17.34375 25.335938 17.148438 25.09375 17.148438 L 15.609375 17.148438 C 15.367188 17.148438 15.171875 17.34375 15.171875 17.582031 C 15.171875 17.820312 15.367188 18.015625 15.609375 18.015625 "/>
<g clip-path="url(#clip2)" clip-rule="nonzero">
<path style=" stroke:none;fill-rule:nonzero;fill:rgb(7.058716%,84.709167%,87.449646%);fill-opacity:1;" d="M 7.929688 16.003906 C 8.050781 16.003906 8.164062 15.960938 8.246094 15.875 L 14.636719 9.519531 C 14.808594 9.351562 14.808594 9.074219 14.636719 8.902344 C 14.464844 8.730469 14.1875 8.730469 14.011719 8.902344 L 7.882812 14.992188 L 4.074219 12.296875 C 3.875 12.15625 3.601562 12.203125 3.457031 12.402344 C 3.316406 12.597656 3.363281 12.871094 3.5625 13.011719 L 7.675781 15.945312 C 7.75 15.992188 7.84375 16.011719 7.929688 16.003906 "/>
</g>
</g>
</svg>
